<?xml version="1.0" encoding="UTF-8"?>
<svg width="20px" height="20px" viewBox="0 0 20 20" version="1.1" xmlns="http://www.w3.org/2000/svg" xmlns:xlink="http://www.w3.org/1999/xlink">
    <title>site</title>
    <g stroke="none" stroke-width="1" fill-rule="evenodd">
        <path d="M9.36823315,16.1099891 C11.5463331,17.1677179 14.058286,17.6687942 16.7450966,17.3849461 C14.9670883,19.009838 12.5996426,20.0012706 10.0006353,20.0012706 C8.40757721,20.0012706 6.90151817,19.6287834 5.56480166,18.9661523 C7.0457253,18.1491856 8.31389819,17.1851954 9.36823315,16.1099891 Z M2.02523031,7.34478495 C2.99110452,10.765182 5.30667072,13.7788492 8.43169136,15.6090382 C7.43187304,16.5856237 6.235821,17.4603048 4.84519143,18.2025198 L4.52295354,18.3690547 C1.79897716,16.5824071 0,13.501608 0,10.0006353 C0,9.53291826 0.0321080988,9.07270046 0.0942403628,8.62206585 C0.173706027,8.60891596 0.250384832,8.57493483 0.317577716,8.52111042 C0.858332145,8.08794273 1.42949666,7.69482256 2.02523031,7.34478495 Z M13.2119845,5.88542451 C15.561155,6.5633621 17.8363627,7.89132672 19.8206709,9.96995811 L20,10.1616903 C19.9640987,12.4355419 19.1693069,14.5251057 17.8577892,16.1882166 C15.0279135,16.7491682 12.3697578,16.3616376 10.0873838,15.3214206 C12.380828,12.6096433 13.4330508,9.30163332 13.2119845,5.88542451 Z M3.29611872,6.67906455 C6.01692542,5.42097293 9.12956053,4.99944933 12.1739879,5.62958086 C12.4740077,8.97751591 11.4580066,12.22103 9.15260899,14.8470931 C6.18655603,13.1854172 3.97471958,10.3839627 3.03885561,7.19141151 L2.94349079,6.84789002 L3.29611872,6.67906455 Z M11.6395011,0.133631685 C15.936196,0.841952681 19.3095975,4.28898922 19.9070303,8.62206585 C17.832767,6.66186449 15.4965276,5.41716562 13.099189,4.79660617 C12.8804905,3.26705124 12.4084813,1.7263365 11.6803535,0.217631771 L11.6395011,0.133631685 Z M1.55688509,4.63600705 C1.59407132,5.20180285 1.66847856,5.7624228 1.77795232,6.31477884 C1.30436391,6.58084724 0.844591194,6.87172723 0.401034871,7.18631342 C0.627629027,6.41291767 0.945472051,5.67736581 1.34212858,4.99302256 L1.55688509,4.63600705 Z M10.0006353,-1.15463195e-13 C10.167288,-1.15463195e-13 10.3329885,0.00407636157 10.4976428,0.0121348153 C10.4973069,0.0877654729 10.515751,0.163197892 10.5524807,0.233976176 C11.2920673,1.6591659 11.7853057,3.1158761 12.0346415,4.56194075 C8.82983188,3.9784992 5.56813134,4.47235774 2.72076688,5.82831399 C2.60321121,5.14916291 2.54320292,4.45780723 2.54533618,3.76085144 C2.5456892,3.64551747 2.50757722,3.53904341 2.44307449,3.45357748 C4.27394197,1.33831246 6.98099882,-1.15463195e-13 10.0006353,-1.15463195e-13 Z"></path>
    </g>
</svg>